<?xml version="1.0" encoding="UTF-8" standalone="no"?>
<svg
   xmlns:dc="http://purl.org/dc/elements/1.1/"
   xmlns:cc="http://creativecommons.org/ns#"
   xmlns:rdf="http://www.w3.org/1999/02/22-rdf-syntax-ns#"
   xmlns:svg="http://www.w3.org/2000/svg"
   xmlns="http://www.w3.org/2000/svg"
   viewBox="0 0 981.81293 418.60266"
   height="418.60266"
   width="981.81293"
   xml:space="preserve"
   id="svg2"
   version="1.1"><metadata
     id="metadata8"><rdf:RDF><cc:Work
         rdf:about=""><dc:format>image/svg+xml</dc:format><dc:type
           rdf:resource="http://purl.org/dc/dcmitype/StillImage" /></cc:Work></rdf:RDF></metadata><defs
     id="defs6"><clipPath
       id="clipPath14"
       clipPathUnits="userSpaceOnUse"><path
         id="path12"
         d="M 0,0 H 841 V 1189 H 0 Z" /></clipPath><clipPath
       id="clipPath24"
       clipPathUnits="userSpaceOnUse"><path
         id="path22"
         d="M 0,0 H 841 V 1189 H 0 Z" /></clipPath><clipPath
       id="clipPath62"
       clipPathUnits="userSpaceOnUse"><path
         id="path60"
         d="m 559.9074,387.4477 h 44.0654 v 53.31641 h -44.0654 z" /></clipPath><clipPath
       id="clipPath76"
       clipPathUnits="userSpaceOnUse"><path
         id="path74"
         d="M 438.8997,341.1344 H 781.319 v 256.077 H 438.8997 Z" /></clipPath><clipPath
       id="clipPath86"
       clipPathUnits="userSpaceOnUse"><path
         id="path84"
         d="M 449.3775,383.0552 H 770.841 v 205.008 H 449.3775 Z" /></clipPath><clipPath
       id="clipPath96"
       clipPathUnits="userSpaceOnUse"><path
         id="path94"
         d="M 446.6018,430.5628 H 773.6167 V 562.4061 H 446.6018 Z" /></clipPath><clipPath
       id="clipPath106"
       clipPathUnits="userSpaceOnUse"><path
         id="path104"
         d="m 459.7727,578.221 13.078,0.7297 0.7298,-13.078 -13.0781,-0.7298 z" /></clipPath><clipPath
       id="clipPath112"
       clipPathUnits="userSpaceOnUse"><path
         id="path110"
         d="M 0,0 H 841 V 1189 H 0 Z" /></clipPath><clipPath
       id="clipPath122"
       clipPathUnits="userSpaceOnUse"><path
         id="path120"
         d="m 476.1903,578.221 13.0781,0.7297 0.7297,-13.078 -13.078,-0.7298 z" /></clipPath><clipPath
       id="clipPath128"
       clipPathUnits="userSpaceOnUse"><path
         id="path126"
         d="M 0,0 H 841 V 1189 H 0 Z" /></clipPath><clipPath
       id="clipPath138"
       clipPathUnits="userSpaceOnUse"><path
         id="path136"
         d="m 492.6079,578.221 13.0781,0.7297 0.7297,-13.078 -13.078,-0.7298 z" /></clipPath><clipPath
       id="clipPath144"
       clipPathUnits="userSpaceOnUse"><path
         id="path142"
         d="M 0,0 H 841 V 1189 H 0 Z" /></clipPath><clipPath
       id="clipPath154"
       clipPathUnits="userSpaceOnUse"><path
         id="path152"
         d="m 449.2612,352.3605 h 321.6961 v 71.24321 H 449.2612 Z" /></clipPath><clipPath
       id="clipPath164"
       clipPathUnits="userSpaceOnUse"><path
         id="path162"
         d="M 449.4357,397.1029 H 770.7828 V 547.8772 H 449.4357 Z" /></clipPath><clipPath
       id="clipPath174"
       clipPathUnits="userSpaceOnUse"><path
         id="path172"
         d="m 456.6756,511.0439 h 89.62707 v 17.20753 H 456.6756 Z" /></clipPath><clipPath
       id="clipPath184"
       clipPathUnits="userSpaceOnUse"><path
         id="path182"
         d="m 456.6756,488.9459 h 76.8078 v 17.22295 h -76.8078 z" /></clipPath><clipPath
       id="clipPath194"
       clipPathUnits="userSpaceOnUse"><path
         id="path192"
         d="m 490.42,363.4586 h 65.28687 v 30.03796 H 490.42 Z" /></clipPath><clipPath
       id="clipPath204"
       clipPathUnits="userSpaceOnUse"><path
         id="path202"
         d="m 533.5479,384.1363 -17.4566,-15.1748 -3.2751,3.7676 17.4566,15.1748 z" /></clipPath><clipPath
       id="clipPath210"
       clipPathUnits="userSpaceOnUse"><path
         id="path208"
         d="M 0,0 H 841 V 1189 H 0 Z" /></clipPath><clipPath
       id="clipPath220"
       clipPathUnits="userSpaceOnUse"><path
         id="path218"
         d="m 530.0354,369.1194 -17.4565,15.1748 3.2158,3.6995 17.4566,-15.1748 z" /></clipPath><clipPath
       id="clipPath226"
       clipPathUnits="userSpaceOnUse"><path
         id="path224"
         d="M 0,0 H 841 V 1189 H 0 Z" /></clipPath><clipPath
       id="clipPath236"
       clipPathUnits="userSpaceOnUse"><path
         id="path234"
         d="m 577.4659,364.276 h 65.28687 v 30.03796 H 577.4659 Z" /></clipPath><clipPath
       id="clipPath246"
       clipPathUnits="userSpaceOnUse"><path
         id="path244"
         d="m 599.2842,365.1688 h 21.6501 v 25.50208 h -21.6501 z" /></clipPath><clipPath
       id="clipPath260"
       clipPathUnits="userSpaceOnUse"><path
         id="path258"
         d="m 663.241,364.0216 h 65.28687 v 30.03796 H 663.241 Z" /></clipPath><clipPath
       id="clipPath270"
       clipPathUnits="userSpaceOnUse"><path
         id="path268"
         d="m 688.1685,382.0378 6.7957,-8.6981 -3.8841,-3.0346 -6.7957,8.6981 z" /></clipPath><clipPath
       id="clipPath276"
       clipPathUnits="userSpaceOnUse"><path
         id="path274"
         d="M 0,0 H 841 V 1189 H 0 Z" /></clipPath><clipPath
       id="clipPath286"
       clipPathUnits="userSpaceOnUse"><path
         id="path284"
         d="m 707.4917,384.2271 -15.9888,-13.8988 -3.0912,3.556 15.9888,13.8988 z" /></clipPath><clipPath
       id="clipPath292"
       clipPathUnits="userSpaceOnUse"><path
         id="path290"
         d="M 0,0 H 841 V 1189 H 0 Z" /></clipPath><clipPath
       id="clipPath302"
       clipPathUnits="userSpaceOnUse"><path
         id="path300"
         d="m 549.9721,510.8781 h 154.7936 v 17.20753 H 549.9721 Z" /></clipPath><clipPath
       id="clipPath312"
       clipPathUnits="userSpaceOnUse"><path
         id="path310"
         d="M 549.9721,424.6079 H 712.044 v 16.90114 H 549.9721 Z" /></clipPath><clipPath
       id="clipPath322"
       clipPathUnits="userSpaceOnUse"><path
         id="path320"
         d="m 549.9721,467.6664 h 151.4551 v 17.20753 H 549.9721 Z" /></clipPath><clipPath
       id="clipPath332"
       clipPathUnits="userSpaceOnUse"><path
         id="path330"
         d="m 549.9721,489.316 h 130.3692 v 17.11985 H 549.9721 Z" /></clipPath><clipPath
       id="clipPath342"
       clipPathUnits="userSpaceOnUse"><path
         id="path340"
         d="m 549.9721,446.0606 h 112.1803 v 17.20753 H 549.9721 Z" /></clipPath><clipPath
       id="clipPath352"
       clipPathUnits="userSpaceOnUse"><path
         id="path350"
         d="m 715.7134,492.2484 h 41.0249 v 37.62648 h -41.0249 z" /></clipPath><clipPath
       id="clipPath362"
       clipPathUnits="userSpaceOnUse"><path
         id="path360"
         d="m 737.0263,525.856 10.9814,-14.0555 -5.1578,-4.0298 -10.9814,14.0555 z" /></clipPath><clipPath
       id="clipPath368"
       clipPathUnits="userSpaceOnUse"><path
         id="path366"
         d="M 0,0 H 841 V 1189 H 0 Z" /></clipPath><clipPath
       id="clipPath378"
       clipPathUnits="userSpaceOnUse"><path
         id="path376"
         d="m 732.791,496.6709 v 26.8658 h 6.8697 v -26.8658 z" /></clipPath><clipPath
       id="clipPath384"
       clipPathUnits="userSpaceOnUse"><path
         id="path382"
         d="M 0,0 H 841 V 1189 H 0 Z" /></clipPath><clipPath
       id="clipPath394"
       clipPathUnits="userSpaceOnUse"><path
         id="path392"
         d="m 740.7386,521.5376 -11.4895,-14.1526 -5.0741,4.1193 11.4895,14.1526 z" /></clipPath><clipPath
       id="clipPath400"
       clipPathUnits="userSpaceOnUse"><path
         id="path398"
         d="M 0,0 H 841 V 1189 H 0 Z" /></clipPath><clipPath
       id="clipPath410"
       clipPathUnits="userSpaceOnUse"><path
         id="path408"
         d="m 715.7134,450.3597 h 41.0249 v 37.62648 h -41.0249 z" /></clipPath><clipPath
       id="clipPath420"
       clipPathUnits="userSpaceOnUse"><path
         id="path418"
         d="m 735.1594,454.3785 -10.9814,14.0556 5.1578,4.0298 10.9814,-14.0556 z" /></clipPath><clipPath
       id="clipPath426"
       clipPathUnits="userSpaceOnUse"><path
         id="path424"
         d="M 0,0 H 841 V 1189 H 0 Z" /></clipPath><clipPath
       id="clipPath436"
       clipPathUnits="userSpaceOnUse"><path
         id="path434"
         d="m 739.3947,483.5637 v -26.8658 h -6.8697 v 26.8658 z" /></clipPath><clipPath
       id="clipPath442"
       clipPathUnits="userSpaceOnUse"><path
         id="path440"
         d="M 0,0 H 841 V 1189 H 0 Z" /></clipPath><clipPath
       id="clipPath452"
       clipPathUnits="userSpaceOnUse"><path
         id="path450"
         d="m 731.4471,458.6969 11.4895,14.1527 5.0741,-4.1193 -11.4895,-14.1527 z" /></clipPath><clipPath
       id="clipPath458"
       clipPathUnits="userSpaceOnUse"><path
         id="path456"
         d="M 0,0 H 841 V 1189 H 0 Z" /></clipPath><clipPath
       id="clipPath468"
       clipPathUnits="userSpaceOnUse"><path
         id="path466"
         d="m 59.68109,343.1721 h 336.9588 V 595.1736 H 59.68109 Z" /></clipPath><clipPath
       id="clipPath478"
       clipPathUnits="userSpaceOnUse"><path
         id="path476"
         d="m 70.53564,385.8196 h 315.2497 V 586.8789 H 70.53564 Z" /></clipPath><clipPath
       id="clipPath488"
       clipPathUnits="userSpaceOnUse"><path
         id="path486"
         d="m 67.81391,431.1846 h 320.6932 V 560.5024 H 67.81391 Z" /></clipPath><clipPath
       id="clipPath498"
       clipPathUnits="userSpaceOnUse"><path
         id="path496"
         d="M 69.5853,352.8357 H 386.8858 V 454.662 H 69.5853 Z" /></clipPath><clipPath
       id="clipPath508"
       clipPathUnits="userSpaceOnUse"><path
         id="path506"
         d="m 70.19983,428.47 h 316.8507 V 553.7012 H 70.19983 Z" /></clipPath><clipPath
       id="clipPath518"
       clipPathUnits="userSpaceOnUse"><path
         id="path516"
         d="m 71.12471,404.0956 h 75.55231 v 66.07722 H 71.12471 Z" /></clipPath><clipPath
       id="clipPath528"
       clipPathUnits="userSpaceOnUse"><path
         id="path526"
         d="m 77.78558,419.7784 25.03142,26.807 6.8501,-6.3965 -25.03135,-26.8069 z" /></clipPath><clipPath
       id="clipPath534"
       clipPathUnits="userSpaceOnUse"><path
         id="path532"
         d="M 0,0 H 841 V 1189 H 0 Z" /></clipPath><clipPath
       id="clipPath544"
       clipPathUnits="userSpaceOnUse"><path
         id="path542"
         d="m 103.4383,446.7428 16.8029,-15.7229 -6.265,-6.6954 -16.80295,15.7228 z" /></clipPath><clipPath
       id="clipPath550"
       clipPathUnits="userSpaceOnUse"><path
         id="path548"
         d="M 0,0 H 841 V 1189 H 0 Z" /></clipPath><clipPath
       id="clipPath560"
       clipPathUnits="userSpaceOnUse"><path
         id="path558"
         d="m 108.4267,429.5845 25.0314,26.807 6.5113,-6.0801 -25.0313,-26.807 z" /></clipPath><clipPath
       id="clipPath566"
       clipPathUnits="userSpaceOnUse"><path
         id="path564"
         d="M 0,0 H 841 V 1189 H 0 Z" /></clipPath><clipPath
       id="clipPath576"
       clipPathUnits="userSpaceOnUse"><path
         id="path574"
         d="m 156.1223,506.5719 h 209.4499 v 41.72469 H 156.1223 Z" /></clipPath><clipPath
       id="clipPath586"
       clipPathUnits="userSpaceOnUse"><path
         id="path584"
         d="m 167.2624,514.3594 h 41.31209 v 26.14974 H 167.2624 Z" /></clipPath><clipPath
       id="clipPath596"
       clipPathUnits="userSpaceOnUse"><path
         id="path594"
         d="m 215.5119,514.3594 h 41.31209 v 26.14974 H 215.5119 Z" /></clipPath><clipPath
       id="clipPath606"
       clipPathUnits="userSpaceOnUse"><path
         id="path604"
         d="m 263.8326,514.3594 h 41.31209 v 26.14974 H 263.8326 Z" /></clipPath><clipPath
       id="clipPath616"
       clipPathUnits="userSpaceOnUse"><path
         id="path614"
         d="m 312.1532,514.3594 h 41.31209 v 26.14974 H 312.1532 Z" /></clipPath><clipPath
       id="clipPath626"
       clipPathUnits="userSpaceOnUse"><path
         id="path624"
         d="m 177.1001,513.7926 h 21.85144 v 25.25208 H 177.1001 Z" /></clipPath><clipPath
       id="clipPath640"
       clipPathUnits="userSpaceOnUse"><path
         id="path638"
         d="m 229.0731,513.7926 h 14.1897 v 25.25208 h -14.1897 z" /></clipPath><clipPath
       id="clipPath654"
       clipPathUnits="userSpaceOnUse"><path
         id="path652"
         d="m 273.3844,512.7926 h 22.20847 v 26.25208 H 273.3844 Z" /></clipPath><clipPath
       id="clipPath668"
       clipPathUnits="userSpaceOnUse"><path
         id="path666"
         d="m 322.3712,512.7225 h 22.68381 v 26.25208 H 322.3712 Z" /></clipPath><clipPath
       id="clipPath682"
       clipPathUnits="userSpaceOnUse"><path
         id="path680"
         d="M 152.6167,390.2752 H 369.0778 V 501.5291 H 152.6167 Z" /></clipPath><clipPath
       id="clipPath692"
       clipPathUnits="userSpaceOnUse"><path
         id="path690"
         d="m 229.8664,400.7141 h 61.96171 v 28.56482 H 229.8664 Z" /></clipPath><clipPath
       id="clipPath702"
       clipPathUnits="userSpaceOnUse"><path
         id="path700"
         d="m 160.5407,400.7141 h 61.96171 v 28.56482 H 160.5407 Z" /></clipPath><clipPath
       id="clipPath712"
       clipPathUnits="userSpaceOnUse"><path
         id="path710"
         d="m 299.192,400.7141 h 61.96171 v 28.56482 H 299.192 Z" /></clipPath><clipPath
       id="clipPath722"
       clipPathUnits="userSpaceOnUse"><path
         id="path720"
         d="m 163.5989,476.0985 h 194.4967 v 15.1637 H 163.5989 Z" /></clipPath><clipPath
       id="clipPath732"
       clipPathUnits="userSpaceOnUse"><path
         id="path730"
         d="m 165.1621,457.3204 h 164.4476 v 15.1637 H 165.1621 Z" /></clipPath><clipPath
       id="clipPath742"
       clipPathUnits="userSpaceOnUse"><path
         id="path740"
         d="m 165.1621,438.5422 h 182.1217 v 15.1637 H 165.1621 Z" /></clipPath><clipPath
       id="clipPath752"
       clipPathUnits="userSpaceOnUse"><path
         id="path750"
         d="m 249.3441,397.659 h 23.0063 v 28.05722 h -23.0063 z" /></clipPath><clipPath
       id="clipPath766"
       clipPathUnits="userSpaceOnUse"><path
         id="path764"
         d="m 322.8714,418.334 6.5033,-8.3239 -3.7628,-2.9399 -6.5033,8.3239 z" /></clipPath><clipPath
       id="clipPath772"
       clipPathUnits="userSpaceOnUse"><path
         id="path770"
         d="M 0,0 H 841 V 1189 H 0 Z" /></clipPath><clipPath
       id="clipPath782"
       clipPathUnits="userSpaceOnUse"><path
         id="path780"
         d="m 341.2443,420.3293 -15.228,-13.2375 -2.9977,3.4485 15.228,13.2375 z" /></clipPath><clipPath
       id="clipPath788"
       clipPathUnits="userSpaceOnUse"><path
         id="path786"
         d="M 0,0 H 841 V 1189 H 0 Z" /></clipPath><clipPath
       id="clipPath798"
       clipPathUnits="userSpaceOnUse"><path
         id="path796"
         d="m 201.6698,420.2778 -16.6187,-14.4464 -3.1719,3.649 16.6187,14.4464 z" /></clipPath><clipPath
       id="clipPath804"
       clipPathUnits="userSpaceOnUse"><path
         id="path802"
         d="M 0,0 H 841 V 1189 H 0 Z" /></clipPath><clipPath
       id="clipPath814"
       clipPathUnits="userSpaceOnUse"><path
         id="path812"
         d="m 198.273,405.981 -16.6187,14.4465 3.1158,3.5843 16.6187,-14.4464 z" /></clipPath><clipPath
       id="clipPath820"
       clipPathUnits="userSpaceOnUse"><path
         id="path818"
         d="M 0,0 H 841 V 1189 H 0 Z" /></clipPath><clipPath
       id="clipPath830"
       clipPathUnits="userSpaceOnUse"><path
         id="path828"
         d="M 164.8546,372.0913 H 322.377 v 14.76488 H 164.8546 Z" /></clipPath><clipPath
       id="clipPath840"
       clipPathUnits="userSpaceOnUse"><path
         id="path838"
         d="m 164.8546,355.8182 h 136.3609 v 14.76488 H 164.8546 Z" /></clipPath><clipPath
       id="clipPath850"
       clipPathUnits="userSpaceOnUse"><path
         id="path848"
         d="m 82.03993,577.8996 13.07804,0.7297 0.72974,-13.078 -13.07804,-0.7298 z" /></clipPath><clipPath
       id="clipPath856"
       clipPathUnits="userSpaceOnUse"><path
         id="path854"
         d="M 0,0 H 841 V 1189 H 0 Z" /></clipPath><clipPath
       id="clipPath866"
       clipPathUnits="userSpaceOnUse"><path
         id="path864"
         d="m 98.45754,577.8996 13.07806,0.7297 0.7297,-13.078 -13.07803,-0.7298 z" /></clipPath><clipPath
       id="clipPath872"
       clipPathUnits="userSpaceOnUse"><path
         id="path870"
         d="M 0,0 H 841 V 1189 H 0 Z" /></clipPath><clipPath
       id="clipPath882"
       clipPathUnits="userSpaceOnUse"><path
         id="path880"
         d="m 114.8751,577.8996 13.0781,0.7297 0.7297,-13.078 -13.078,-0.7298 z" /></clipPath><clipPath
       id="clipPath888"
       clipPathUnits="userSpaceOnUse"><path
         id="path886"
         d="M 0,0 H 841 V 1189 H 0 Z" /></clipPath></defs><g
     clip-path="url(#clipPath14)"
     transform="matrix(1.3333333,0,0,-1.3333333,-69.767067,821.70133)"
     id="g10"><g
       id="g16" /><g
       id="g18"><g
         clip-path="url(#clipPath24)"
         id="g20"><path
           id="path26"
           style="fill:#ffffff;fill-opacity:1;fill-rule:nonzero;stroke:none"
           d="M 0,1189 H 841 V 0 H 0 Z" /><g
           transform="translate(557.5358,316.4261)"
           id="g28"><text
             id="text32"
             style="font-variant:normal;font-weight:bold;font-size:22px;font-family:HelveticaNeue;-inkscape-font-specification:HelveticaNeue-Bold;writing-mode:lr-tb;fill:#2c3544;fill-opacity:1;fill-rule:nonzero;stroke:none"
             transform="scale(1,-1)"><tspan
               id="tspan30"
               y="0"
               x="0 13.046 26.488001 39.116001 52.161999">Focus</tspan></text>
</g><g
           transform="translate(557.5358,316.4261)"
           id="g34" /><g
           transform="translate(557.5358,316.4261)"
           id="g36"><text
             id="text40"
             style="font-variant:normal;font-weight:bold;font-size:22px;font-family:HelveticaNeue;-inkscape-font-specification:HelveticaNeue-Bold;writing-mode:lr-tb;fill:#2c3544;fill-opacity:1;fill-rule:nonzero;stroke:none"
             transform="matrix(1,0,0,-1,70.092,0)"><tspan
               id="tspan38"
               y="0"
               x="0 19.954 33.396 46.838001">Mode</tspan></text>
</g><g
           transform="translate(152.1945,317.1177)"
           id="g42"><text
             id="text46"
             style="font-variant:normal;font-weight:bold;font-size:22px;font-family:HelveticaNeue;-inkscape-font-specification:HelveticaNeue-Bold;writing-mode:lr-tb;fill:#2c3544;fill-opacity:1;fill-rule:nonzero;stroke:none"
             transform="scale(1,-1)"><tspan
               id="tspan44"
               y="0"
               x="0 15.884 28.511999 41.557999 54.186001 59.862 72.907997">Ranking</tspan></text>
</g><g
           transform="translate(152.1945,317.1177)"
           id="g48" /><g
           transform="translate(152.1945,317.1177)"
           id="g50"><text
             id="text54"
             style="font-variant:normal;font-weight:bold;font-size:22px;font-family:HelveticaNeue;-inkscape-font-specification:HelveticaNeue-Bold;writing-mode:lr-tb;fill:#2c3544;fill-opacity:1;fill-rule:nonzero;stroke:none"
             transform="matrix(1,0,0,-1,92.466,0)"><tspan
               id="tspan52"
               y="0"
               x="0 19.954 33.396 46.838001">Mode</tspan></text>
</g></g></g><g
       id="g56"><g
         clip-path="url(#clipPath62)"
         id="g58"><g
           transform="translate(572.4721,403.6894)"
           id="g64"><text
             id="text68"
             style="font-variant:normal;font-weight:bold;font-size:31px;font-family:Arial;-inkscape-font-specification:Arial-BoldMT;writing-mode:lr-tb;fill:#ffffff;fill-opacity:1;fill-rule:nonzero;stroke:none"
             transform="scale(1,-1)"><tspan
               id="tspan66"
               y="0"
               x="0">?</tspan></text>
</g></g></g><g
       id="g70"><g
         clip-path="url(#clipPath76)"
         id="g72"><path
           id="path78"
           style="fill:#3b2972;fill-opacity:1;fill-rule:nonzero;stroke:none"
           d="m 477.497,596.2114 h 265.2245 c 11.033,0 17.6527,0 22.0659,-1.8425 6.3619,-2.3155 11.3735,-7.3271 13.6891,-13.6891 1.8424,-4.4131 1.8424,-11.0329 1.8424,-22.0658 V 379.7317 c 0,-11.0329 0,-17.6526 -1.8424,-22.0658 -2.3156,-6.362 -7.3272,-11.3735 -13.6891,-13.6891 -4.4132,-1.8424 -11.0329,-1.8424 -22.0659,-1.8424 H 477.497 c -11.0329,0 -17.6526,0 -22.0658,1.8424 -6.362,2.3156 -11.3735,7.3271 -13.6891,13.6891 -1.8424,4.4132 -1.8424,11.0329 -1.8424,22.0658 V 558.614 c 0,11.0329 0,17.6527 1.8424,22.0658 2.3156,6.362 7.3271,11.3736 13.6891,13.6891 4.4132,1.8425 11.0329,1.8425 22.0658,1.8425 z" /></g></g><g
       id="g80"><g
         clip-path="url(#clipPath86)"
         id="g82"><path
           id="path88"
           style="fill:#673da9;fill-opacity:1;fill-rule:nonzero;stroke:none"
           d="m 470.6608,587.0632 h 278.8969 c 5.9522,0 9.5234,0 11.9043,-0.994 3.4322,-1.2492 6.1358,-3.9529 7.385,-7.3851 0.994,-2.3808 0.994,-5.9521 0.994,-11.9042 V 404.3385 c 0,-5.9522 0,-9.5234 -0.994,-11.9043 -1.2492,-3.4322 -3.9528,-6.1358 -7.385,-7.3851 -2.3809,-0.9939 -5.9521,-0.9939 -11.9043,-0.9939 H 470.6608 c -5.9521,0 -9.5234,0 -11.9042,0.9939 -3.4322,1.2493 -6.1359,3.9529 -7.3851,7.3851 -0.994,2.3809 -0.994,5.9521 -0.994,11.9043 v 162.4414 c 0,5.9521 0,9.5234 0.994,11.9042 1.2492,3.4322 3.9529,6.1359 7.3851,7.3851 2.3808,0.994 5.9521,0.994 11.9042,0.994 z" /></g></g><g
       id="g90"><g
         clip-path="url(#clipPath96)"
         id="g92"><path
           id="path98"
           style="fill:#3b2871;fill-opacity:1;fill-rule:nonzero;stroke:none"
           d="M 447.6018,561.4061 H 772.6167 V 431.5628 H 447.6018 Z" /></g></g><g
       id="g100"><g
         clip-path="url(#clipPath106)"
         id="g102"><g
           clip-path="url(#clipPath112)"
           id="g108"><path
             id="path114"
             style="fill:#3c2973;fill-opacity:1;fill-rule:nonzero;stroke:none"
             d="m 470.3758,576.1832 c 2.2844,-2.043 2.4802,-5.5511 0.4372,-7.8355 -2.043,-2.2845 -5.5511,-2.4803 -7.8356,-0.4373 -2.2844,2.043 -2.4802,5.5511 -0.4372,7.8356 2.043,2.2845 5.5511,2.4802 7.8356,0.4372 z" /></g></g></g><g
       id="g116"><g
         clip-path="url(#clipPath122)"
         id="g118"><g
           clip-path="url(#clipPath128)"
           id="g124"><path
             id="path130"
             style="fill:#3c2973;fill-opacity:1;fill-rule:nonzero;stroke:none"
             d="m 486.7934,576.1832 c 2.2844,-2.043 2.4802,-5.5511 0.4372,-7.8355 -2.043,-2.2845 -5.5511,-2.4803 -7.8356,-0.4373 -2.2844,2.043 -2.4802,5.5511 -0.4372,7.8356 2.043,2.2845 5.5511,2.4802 7.8356,0.4372 z" /></g></g></g><g
       id="g132"><g
         clip-path="url(#clipPath138)"
         id="g134"><g
           clip-path="url(#clipPath144)"
           id="g140"><path
             id="path146"
             style="fill:#3c2973;fill-opacity:1;fill-rule:nonzero;stroke:none"
             d="m 503.211,576.1832 c 2.2844,-2.043 2.4802,-5.5511 0.4372,-7.8355 -2.043,-2.2845 -5.5511,-2.4803 -7.8356,-0.4373 -2.2844,2.043 -2.4802,5.5511 -0.4372,7.8356 2.043,2.2845 5.5511,2.4802 7.8356,0.4372 z" /></g></g></g><g
       id="g148"><g
         clip-path="url(#clipPath154)"
         id="g150"><path
           id="path156"
           style="fill:#ffffff;fill-opacity:1;fill-rule:nonzero;stroke:none"
           d="m 468.3715,422.6037 h 283.4754 c 5.3145,0 8.5032,0 10.629,-0.8875 3.0645,-1.1154 5.4785,-3.5294 6.5939,-6.5939 0.8875,-2.1258 0.8875,-5.3145 0.8875,-10.6289 v -33.0226 c 0,-5.3144 0,-8.5031 -0.8875,-10.6289 -1.1154,-3.0645 -3.5294,-5.4785 -6.5939,-6.5939 -2.1258,-0.8875 -5.3145,-0.8875 -10.629,-0.8875 H 468.3715 c -5.3144,0 -8.5031,0 -10.6289,0.8875 -3.0645,1.1154 -5.4785,3.5294 -6.5939,6.5939 -0.8875,2.1258 -0.8875,5.3145 -0.8875,10.6289 v 33.0226 c 0,5.3144 0,8.5031 0.8875,10.6289 1.1154,3.0645 3.5294,5.4785 6.5939,6.5939 2.1258,0.8875 5.3145,0.8875 10.6289,0.8875 z" /></g></g><g
       id="g158"><g
         clip-path="url(#clipPath164)"
         id="g160"><path
           id="path166"
           style="fill:#ffffff;fill-opacity:1;fill-rule:nonzero;stroke:none"
           d="M 450.4357,546.8772 H 769.7828 V 398.1029 H 450.4357 Z" /></g></g><g
       id="g168"><g
         clip-path="url(#clipPath174)"
         id="g170"><path
           id="path176"
           style="fill:#3b2972;fill-opacity:1;fill-rule:nonzero;stroke:none"
           d="m 469.2992,527.2514 h 64.3799 c 3.3102,0 5.2964,0 6.6205,-0.4585 2.112,-0.7688 3.7758,-2.4325 4.5445,-4.5446 0.3034,-0.8335 0.4586,-1.7136 0.4586,-2.6006 0,-0.887 -0.1552,-1.7672 -0.4586,-2.6007 -0.7687,-2.1121 -2.4325,-3.7758 -4.5445,-4.5445 -1.3241,-0.4586 -3.3103,-0.4586 -6.6205,-0.4586 h -64.3799 c -3.3102,0 -5.2964,0 -6.6205,0.4586 -2.112,0.7687 -3.7758,2.4324 -4.5445,4.5445 -0.3034,0.8335 -0.4586,1.7137 -0.4586,2.6007 0,0.887 0.1552,1.7671 0.4586,2.6006 0.7687,2.1121 2.4325,3.7758 4.5445,4.5446 1.3241,0.4585 3.3103,0.4585 6.6205,0.4585 z" /></g></g><g
       id="g178"><g
         clip-path="url(#clipPath184)"
         id="g180"><path
           id="path186"
           style="fill:#3b2972;fill-opacity:1;fill-rule:nonzero;stroke:none"
           d="m 469.311,505.1688 h 51.537 c 3.3136,0 5.3018,0 6.6272,-0.459 2.1142,-0.7695 3.7797,-2.4349 4.5492,-4.5492 0.3037,-0.8343 0.459,-1.7153 0.459,-2.6032 0,-0.8879 -0.1553,-1.769 -0.459,-2.6033 -0.7695,-2.1142 -2.435,-3.7797 -4.5492,-4.5492 -1.3254,-0.459 -3.3136,-0.459 -6.6272,-0.459 h -51.537 c -3.3136,0 -5.3017,0 -6.6272,0.459 -2.1142,0.7695 -3.7796,2.435 -4.5492,4.5492 -0.3036,0.8343 -0.459,1.7154 -0.459,2.6033 0,0.8879 0.1554,1.7689 0.459,2.6032 0.7696,2.1143 2.435,3.7797 4.5492,4.5492 1.3255,0.459 3.3136,0.459 6.6272,0.459 z" /></g></g><g
       id="g188"><g
         clip-path="url(#clipPath194)"
         id="g190"><path
           id="path196"
           style="fill:#fa5575;fill-opacity:1;fill-rule:nonzero;stroke:none"
           d="m 499.841,392.4966 h 46.4448 c 2.4712,0 3.9539,0 4.9423,-0.4127 1.4249,-0.5186 2.5474,-1.6411 3.0661,-3.066 0.4126,-0.9885 0.4126,-2.4712 0.4126,-4.9423 v -11.196 c 0,-2.4711 0,-3.9538 -0.4126,-4.9422 -0.5187,-1.425 -1.6412,-2.5475 -3.0661,-3.0661 -0.9884,-0.4127 -2.4711,-0.4127 -4.9423,-0.4127 H 499.841 c -2.4712,0 -3.9539,0 -4.9423,0.4127 -1.425,0.5186 -2.5474,1.6411 -3.0661,3.0661 -0.4126,0.9884 -0.4126,2.4711 -0.4126,4.9422 v 11.196 c 0,2.4711 0,3.9538 0.4126,4.9423 0.5187,1.4249 1.6411,2.5474 3.0661,3.066 0.9884,0.4127 2.4711,0.4127 4.9423,0.4127 z" /></g></g><g
       id="g198"><g
         clip-path="url(#clipPath204)"
         id="g200"><g
           clip-path="url(#clipPath210)"
           id="g206"><path
             id="path212"
             style="fill:#ffffff;fill-opacity:1;fill-rule:nonzero;stroke:none"
             d="M 530.4112,382.7346 517.916,371.8727 c -0.4916,-0.4273 -0.7865,-0.6837 -1.0423,-0.7865 -0.4128,-0.1585 -0.8746,-0.1262 -1.2614,0.0882 -0.1526,0.0846 -0.2893,0.1953 -0.4038,0.327 -0.1145,0.1317 -0.2051,0.2824 -0.2676,0.4453 -0.1585,0.4129 -0.1262,0.8747 0.0882,1.2615 0.1374,0.239 0.4324,0.4953 0.9239,0.9226 l 12.4952,10.8619 c 0.4915,0.4273 0.7864,0.6837 1.0423,0.7865 0.4128,0.1585 0.8746,0.1262 1.2614,-0.0882 0.1526,-0.0846 0.2893,-0.1953 0.4038,-0.327 0.1145,-0.1317 0.205,-0.2824 0.2676,-0.4453 0.1584,-0.4129 0.1261,-0.8747 -0.0882,-1.2615 -0.1375,-0.239 -0.4324,-0.4953 -0.9239,-0.9226 z" /></g></g></g><g
       id="g214"><g
         clip-path="url(#clipPath220)"
         id="g216"><g
           clip-path="url(#clipPath226)"
           id="g222"><path
             id="path228"
             style="fill:#ffffff;fill-opacity:1;fill-rule:nonzero;stroke:none"
             d="m 528.2629,371.9853 -12.5994,10.9525 c -0.4767,0.4144 -0.7627,0.663 -0.896,0.8948 -0.2079,0.3751 -0.2392,0.823 -0.0855,1.2233 0.0606,0.1581 0.1485,0.3042 0.2595,0.432 0.111,0.1277 0.2436,0.235 0.3916,0.3171 0.3751,0.2079 0.823,0.2392 1.2234,0.0855 0.2481,-0.0997 0.5341,-0.3483 1.0108,-0.7627 l 12.5993,-10.9525 c 0.4767,-0.4144 0.7628,-0.663 0.896,-0.8948 0.208,-0.3751 0.2393,-0.823 0.0856,-1.2234 -0.0607,-0.158 -0.1485,-0.3041 -0.2595,-0.4319 -0.1111,-0.1277 -0.2436,-0.235 -0.3916,-0.3171 -0.3751,-0.2079 -0.823,-0.2392 -1.2234,-0.0855 -0.2481,0.0997 -0.5341,0.3483 -1.0108,0.7627 z" /></g></g></g><g
       id="g230"><g
         clip-path="url(#clipPath236)"
         id="g232"><path
           id="path238"
           style="fill:#99b4e5;fill-opacity:1;fill-rule:nonzero;stroke:none"
           d="m 586.0389,393.3139 h 48.1407 c 2.2223,0 3.5557,0 4.4447,-0.3711 1.2814,-0.4664 2.2909,-1.4758 2.7573,-2.7573 0.3711,-0.8889 0.3711,-2.2223 0.3711,-4.4446 v -12.8918 c 0,-2.2223 0,-3.5557 -0.3711,-4.4447 -0.4664,-1.2814 -1.4759,-2.2909 -2.7573,-2.7573 -0.889,-0.3711 -2.2224,-0.3711 -4.4447,-0.3711 h -48.1407 c -2.2223,0 -3.5557,0 -4.4446,0.3711 -1.2815,0.4664 -2.2909,1.4759 -2.7573,2.7573 -0.3711,0.889 -0.3711,2.2224 -0.3711,4.4447 v 12.8918 c 0,2.2223 0,3.5557 0.3711,4.4446 0.4664,1.2815 1.4758,2.2909 2.7573,2.7573 0.8889,0.3711 2.2223,0.3711 4.4446,0.3711 z" /></g></g><g
       id="g240"><g
         clip-path="url(#clipPath246)"
         id="g242"><g
           transform="translate(605.8063,375.9281)"
           id="g248"><text
             id="text252"
             style="font-variant:normal;font-size:15px;font-family:HelveticaRoundedLTStd;-inkscape-font-specification:HelveticaRoundedLTStd-Bd;writing-mode:lr-tb;fill:#ffffff;fill-opacity:1;fill-rule:nonzero;stroke:none"
             transform="scale(1,-1)"><tspan
               id="tspan250"
               y="0"
               x="0">?</tspan></text>
</g></g></g><g
       id="g254"><g
         clip-path="url(#clipPath260)"
         id="g256"><path
           id="path262"
           style="fill:#16c4a8;fill-opacity:1;fill-rule:nonzero;stroke:none"
           d="m 672.2833,393.0596 h 47.2023 c 2.36,0 3.776,0 4.72,-0.3942 1.3609,-0.4953 2.4329,-1.5673 2.9282,-2.9281 0.3941,-0.944 0.3941,-2.36 0.3941,-4.72 v -11.9534 c 0,-2.36 0,-3.776 -0.3941,-4.72 -0.4953,-1.3609 -1.5673,-2.4329 -2.9282,-2.9282 -0.944,-0.3941 -2.36,-0.3941 -4.72,-0.3941 h -47.2023 c -2.36,0 -3.776,0 -4.72,0.3941 -1.3608,0.4953 -2.4328,1.5673 -2.9281,2.9282 -0.3942,0.944 -0.3942,2.36 -0.3942,4.72 v 11.9534 c 0,2.36 0,3.776 0.3942,4.72 0.4953,1.3608 1.5673,2.4328 2.9281,2.9281 0.944,0.3942 2.36,0.3942 4.72,0.3942 z" /></g></g><g
       id="g264"><g
         clip-path="url(#clipPath270)"
         id="g266"><g
           clip-path="url(#clipPath276)"
           id="g272"><path
             id="path278"
             style="fill:#ffffff;fill-opacity:1;fill-rule:nonzero;stroke:none"
             d="m 689.3745,378.87 2.8078,-3.5938 c 0.3925,-0.5024 0.628,-0.8038 0.7154,-1.0592 0.1338,-0.4117 0.0785,-0.8615 -0.1509,-1.2286 -0.0905,-0.1449 -0.2057,-0.2728 -0.3403,-0.378 -0.1346,-0.1052 -0.2866,-0.186 -0.4491,-0.2388 -0.4117,-0.1337 -0.8615,-0.0785 -1.2286,0.1509 -0.2266,0.1466 -0.4621,0.448 -0.8546,0.9504 l -2.8078,3.5938 c -0.3925,0.5024 -0.628,0.8038 -0.7154,1.0592 -0.1338,0.4117 -0.0786,0.8615 0.1508,1.2286 0.0906,0.1449 0.2057,0.2728 0.3404,0.378 0.1346,0.1052 0.2866,0.186 0.449,0.2388 0.4117,0.1337 0.8615,0.0785 1.2287,-0.1509 0.2266,-0.1466 0.4621,-0.448 0.8546,-0.9504 z" /></g></g></g><g
       id="g280"><g
         clip-path="url(#clipPath286)"
         id="g282"><g
           clip-path="url(#clipPath292)"
           id="g288"><path
             id="path294"
             style="fill:#ffffff;fill-opacity:1;fill-rule:nonzero;stroke:none"
             d="m 704.5166,382.966 -11.3507,-9.8671 c -0.4455,-0.3873 -0.7128,-0.6196 -0.9447,-0.7128 -0.3741,-0.1436 -0.7927,-0.1144 -1.1432,0.0799 -0.1384,0.0767 -0.2622,0.177 -0.366,0.2964 -0.1037,0.1193 -0.1858,0.256 -0.2425,0.4036 -0.1436,0.3742 -0.1144,0.7927 0.0799,1.1433 0.1246,0.2166 0.3919,0.4489 0.8374,0.8362 l 11.3507,9.8671 c 0.4455,0.3872 0.7128,0.6196 0.9447,0.7128 0.3741,0.1436 0.7927,0.1143 1.1432,-0.08 0.1383,-0.0767 0.2622,-0.177 0.366,-0.2963 0.1037,-0.1194 0.1858,-0.256 0.2425,-0.4037 0.1436,-0.3741 0.1144,-0.7927 -0.08,-1.1432 -0.1245,-0.2166 -0.3918,-0.449 -0.8373,-0.8362 z" /></g></g></g><g
       id="g296"><g
         clip-path="url(#clipPath302)"
         id="g298"><path
           id="path304"
           style="fill:#b496ed;fill-opacity:1;fill-rule:nonzero;stroke:none"
           d="m 562.5957,527.0856 h 129.5464 c 3.3102,0 5.2964,0 6.6205,-0.4586 2.112,-0.7687 3.7758,-2.4325 4.5445,-4.5445 0.3034,-0.8335 0.4586,-1.7137 0.4586,-2.6007 0,-0.887 -0.1552,-1.7671 -0.4586,-2.6006 -0.7687,-2.1121 -2.4325,-3.7759 -4.5445,-4.5446 -1.3241,-0.4585 -3.3103,-0.4585 -6.6205,-0.4585 H 562.5957 c -3.3102,0 -5.2963,0 -6.6204,0.4585 -2.1121,0.7687 -3.7759,2.4325 -4.5446,4.5446 -0.3034,0.8335 -0.4586,1.7136 -0.4586,2.6006 0,0.887 0.1552,1.7672 0.4586,2.6007 0.7687,2.112 2.4325,3.7758 4.5446,4.5445 1.3241,0.4586 3.3102,0.4586 6.6204,0.4586 z" /></g></g><g
       id="g306"><g
         clip-path="url(#clipPath312)"
         id="g308"><path
           id="path314"
           style="fill:#b395ed;fill-opacity:1;fill-rule:nonzero;stroke:none"
           d="m 562.3616,440.509 h 137.293 c 3.2435,0 5.1897,0 6.4871,-0.4493 2.0695,-0.7532 3.6997,-2.3835 4.453,-4.453 0.2972,-0.8167 0.4493,-1.6791 0.4493,-2.5482 0,-0.8692 -0.1521,-1.7316 -0.4493,-2.5483 -0.7533,-2.0695 -2.3835,-3.6997 -4.453,-4.453 -1.2974,-0.4493 -3.2436,-0.4493 -6.4871,-0.4493 h -137.293 c -3.2436,0 -5.1897,0 -6.4871,0.4493 -2.0696,0.7533 -3.6998,2.3835 -4.453,4.453 -0.2973,0.8167 -0.4494,1.6791 -0.4494,2.5483 0,0.8691 0.1521,1.7315 0.4494,2.5482 0.7532,2.0695 2.3834,3.6998 4.453,4.453 1.2974,0.4493 3.2435,0.4493 6.4871,0.4493 z" /></g></g><g
       id="g316"><g
         clip-path="url(#clipPath322)"
         id="g318"><path
           id="path324"
           style="fill:#b395ed;fill-opacity:1;fill-rule:nonzero;stroke:none"
           d="m 562.5957,483.8739 h 126.2079 c 3.3103,0 5.2964,0 6.6205,-0.4585 2.1121,-0.7688 3.7758,-2.4325 4.5446,-4.5446 0.3033,-0.8335 0.4585,-1.7136 0.4585,-2.6006 0,-0.887 -0.1552,-1.7672 -0.4585,-2.6007 -0.7688,-2.1121 -2.4325,-3.7758 -4.5446,-4.5445 -1.3241,-0.4586 -3.3102,-0.4586 -6.6205,-0.4586 H 562.5957 c -3.3102,0 -5.2963,0 -6.6204,0.4586 -2.1121,0.7687 -3.7759,2.4324 -4.5446,4.5445 -0.3034,0.8335 -0.4586,1.7137 -0.4586,2.6007 0,0.887 0.1552,1.7671 0.4586,2.6006 0.7687,2.1121 2.4325,3.7758 4.5446,4.5446 1.3241,0.4585 3.3102,0.4585 6.6204,0.4585 z" /></g></g><g
       id="g326"><g
         clip-path="url(#clipPath332)"
         id="g328"><path
           id="path334"
           style="fill:#b395ed;fill-opacity:1;fill-rule:nonzero;stroke:none"
           d="m 562.5287,505.4359 h 105.2561 c 3.2911,0 5.2658,0 6.5823,-0.4559 2.0999,-0.7643 3.7541,-2.4185 4.5184,-4.5184 0.3016,-0.8287 0.4559,-1.7038 0.4559,-2.5856 0,-0.8819 -0.1543,-1.757 -0.4559,-2.5857 -0.7643,-2.0999 -2.4185,-3.7541 -4.5184,-4.5184 -1.3165,-0.4559 -3.2912,-0.4559 -6.5823,-0.4559 H 562.5287 c -3.2911,0 -5.2658,0 -6.5823,0.4559 -2.0999,0.7643 -3.7541,2.4185 -4.5184,4.5184 -0.3016,0.8287 -0.4559,1.7038 -0.4559,2.5857 0,0.8818 0.1543,1.7569 0.4559,2.5856 0.7643,2.0999 2.4185,3.7541 4.5184,4.5184 1.3165,0.4559 3.2912,0.4559 6.5823,0.4559 z" /></g></g><g
       id="g336"><g
         clip-path="url(#clipPath342)"
         id="g338"><path
           id="path344"
           style="fill:#b395ed;fill-opacity:1;fill-rule:nonzero;stroke:none"
           d="m 562.5957,462.2681 h 86.9331 c 3.3103,0 5.2964,0 6.6205,-0.4586 2.1121,-0.7687 3.7759,-2.4324 4.5446,-4.5445 0.3034,-0.8335 0.4586,-1.7137 0.4586,-2.6007 0,-0.887 -0.1552,-1.7671 -0.4586,-2.6006 -0.7687,-2.1121 -2.4325,-3.7758 -4.5446,-4.5446 -1.3241,-0.4585 -3.3102,-0.4585 -6.6205,-0.4585 h -86.9331 c -3.3102,0 -5.2963,0 -6.6204,0.4585 -2.1121,0.7688 -3.7759,2.4325 -4.5446,4.5446 -0.3034,0.8335 -0.4586,1.7136 -0.4586,2.6006 0,0.887 0.1552,1.7672 0.4586,2.6007 0.7687,2.1121 2.4325,3.7758 4.5446,4.5445 1.3241,0.4586 3.3102,0.4586 6.6204,0.4586 z" /></g></g><g
       id="g346"><g
         clip-path="url(#clipPath352)"
         id="g348"><path
           id="path354"
           style="fill:#e0cdff;fill-opacity:0.5;fill-rule:nonzero;stroke:none"
           d="m 725.549,528.8749 h 21.3537 c 2.5928,0 4.1485,0 5.1856,-0.433 1.4951,-0.5442 2.6729,-1.7219 3.217,-3.217 0.433,-1.0371 0.433,-2.5928 0.433,-5.1856 V 502.084 c 0,-2.5928 0,-4.1485 -0.433,-5.1856 -0.5441,-1.4951 -1.7219,-2.6729 -3.217,-3.217 -1.0371,-0.433 -2.5928,-0.433 -5.1856,-0.433 H 725.549 c -2.5928,0 -4.1485,0 -5.1856,0.433 -1.4951,0.5441 -2.6728,1.7219 -3.217,3.217 -0.433,1.0371 -0.433,2.5928 -0.433,5.1856 v 17.9553 c 0,2.5928 0,4.1485 0.433,5.1856 0.5442,1.4951 1.7219,2.6728 3.217,3.217 1.0371,0.433 2.5928,0.433 5.1856,0.433 z" /></g></g><g
       id="g356"><g
         clip-path="url(#clipPath362)"
         id="g358"><g
           clip-path="url(#clipPath368)"
           id="g364"><path
             id="path370"
             style="fill:#9e9cbe;fill-opacity:1;fill-rule:nonzero;stroke:none"
             d="m 738.9929,521.7146 5.4722,-7.004 c 0.6092,-0.7797 0.9746,-1.2475 1.1103,-1.6438 0.2076,-0.6389 0.1219,-1.3369 -0.2341,-1.9066 -0.1405,-0.2249 -0.3193,-0.4234 -0.5282,-0.5866 -0.2089,-0.1632 -0.4447,-0.2886 -0.6969,-0.3705 -0.6389,-0.2076 -1.3369,-0.1219 -1.9067,0.2341 -0.3516,0.2274 -0.7171,0.6952 -1.3262,1.4749 l -5.4722,7.0041 c -0.6092,0.7796 -0.9746,1.2474 -1.1103,1.6437 -0.2076,0.6389 -0.1219,1.3369 0.2341,1.9067 0.1405,0.2248 0.3193,0.4233 0.5282,0.5865 0.2089,0.1632 0.4447,0.2887 0.6969,0.3706 0.6389,0.2076 1.3369,0.1219 1.9066,-0.2341 0.3517,-0.2275 0.7172,-0.6953 1.3263,-1.475 z" /></g></g></g><g
       id="g372"><g
         clip-path="url(#clipPath378)"
         id="g374"><g
           clip-path="url(#clipPath384)"
           id="g380"><path
             id="path386"
             style="fill:#9e9cbe;fill-opacity:1;fill-rule:nonzero;stroke:none"
             d="m 733.791,501.3929 v 17.4218 c 0,1.06 0,1.696 0.1469,2.1199 0.2461,0.6764 0.7789,1.2091 1.4552,1.4553 0.2669,0.0971 0.5487,0.1468 0.8328,0.1468 0.284,0 0.5658,-0.0497 0.8327,-0.1468 0.6763,-0.2462 1.2091,-0.7789 1.4553,-1.4553 0.1468,-0.4239 0.1468,-1.0599 0.1468,-2.1199 v -17.4218 c 0,-1.06 0,-1.696 -0.1468,-2.12 -0.2462,-0.6763 -0.779,-1.209 -1.4553,-1.4552 -0.2669,-0.0971 -0.5487,-0.1468 -0.8327,-0.1468 -0.2841,0 -0.5659,0.0497 -0.8328,0.1468 -0.6763,0.2462 -1.2091,0.7789 -1.4552,1.4552 -0.1469,0.424 -0.1469,1.06 -0.1469,2.12 z" /></g></g></g><g
       id="g388"><g
         clip-path="url(#clipPath394)"
         id="g390"><g
           clip-path="url(#clipPath400)"
           id="g396"><path
             id="path402"
             style="fill:#9e9cbe;fill-opacity:1;fill-rule:nonzero;stroke:none"
             d="m 737.147,518.7 -5.859,-7.2169 c -0.6222,-0.7665 -0.9956,-1.2264 -1.3507,-1.4468 -0.575,-0.3445 -1.273,-0.417 -1.9066,-0.198 -0.25,0.0865 -0.483,0.216 -0.6884,0.3827 -0.2054,0.1668 -0.38,0.3681 -0.516,0.5951 -0.3445,0.575 -0.417,1.273 -0.198,1.9066 0.1427,0.3928 0.5161,0.8527 1.1384,1.6192 l 5.8589,7.2169 c 0.6223,0.7665 0.9956,1.2264 1.3507,1.4468 0.575,0.3445 1.273,0.417 1.9066,0.198 0.25,-0.0864 0.483,-0.2159 0.6884,-0.3827 0.2054,-0.1667 0.38,-0.3681 0.516,-0.595 0.3445,-0.5751 0.417,-1.2731 0.198,-1.9067 -0.1427,-0.3928 -0.5161,-0.8527 -1.1383,-1.6192 z" /></g></g></g><g
       id="g404"><g
         clip-path="url(#clipPath410)"
         id="g406"><path
           id="path412"
           style="fill:#e0cdff;fill-opacity:0.5;fill-rule:nonzero;stroke:none"
           d="m 725.549,486.9861 h 21.3537 c 2.5928,0 4.1485,0 5.1856,-0.4329 1.4951,-0.5442 2.6729,-1.722 3.217,-3.2171 0.433,-1.0371 0.433,-2.5928 0.433,-5.1856 v -17.9552 c 0,-2.5928 0,-4.1485 -0.433,-5.1856 -0.5441,-1.4951 -1.7219,-2.6729 -3.217,-3.2171 -1.0371,-0.4329 -2.5928,-0.4329 -5.1856,-0.4329 H 725.549 c -2.5928,0 -4.1485,0 -5.1856,0.4329 -1.4951,0.5442 -2.6728,1.722 -3.217,3.2171 -0.433,1.0371 -0.433,2.5928 -0.433,5.1856 v 17.9552 c 0,2.5928 0,4.1485 0.433,5.1856 0.5442,1.4951 1.7219,2.6729 3.217,3.2171 1.0371,0.4329 2.5928,0.4329 5.1856,0.4329 z" /></g></g><g
       id="g414"><g
         clip-path="url(#clipPath420)"
         id="g416"><g
           clip-path="url(#clipPath426)"
           id="g422"><path
             id="path428"
             style="fill:#9e9cbe;fill-opacity:1;fill-rule:nonzero;stroke:none"
             d="m 733.1928,458.5199 -5.4722,7.0041 c -0.6092,0.7797 -0.9746,1.2475 -1.1103,1.6437 -0.2076,0.6389 -0.1219,1.337 0.2341,1.9067 0.1405,0.2248 0.3193,0.4233 0.5282,0.5866 0.2089,0.1632 0.4447,0.2886 0.6969,0.3705 0.6389,0.2076 1.3369,0.1219 1.9066,-0.2341 0.3517,-0.2275 0.7172,-0.6953 1.3263,-1.4749 l 5.4722,-7.0041 c 0.6092,-0.7797 0.9746,-1.2475 1.1103,-1.6437 0.2076,-0.6389 0.1219,-1.337 -0.2341,-1.9067 -0.1405,-0.2248 -0.3193,-0.4233 -0.5282,-0.5866 -0.2089,-0.1632 -0.4447,-0.2886 -0.6969,-0.3705 -0.6389,-0.2076 -1.3369,-0.1219 -1.9067,0.2341 -0.3516,0.2275 -0.7171,0.6953 -1.3262,1.4749 z" /></g></g></g><g
       id="g430"><g
         clip-path="url(#clipPath436)"
         id="g432"><g
           clip-path="url(#clipPath442)"
           id="g438"><path
             id="path444"
             style="fill:#9e9cbe;fill-opacity:1;fill-rule:nonzero;stroke:none"
             d="m 738.3947,478.8417 v -17.4218 c 0,-1.06 0,-1.696 -0.1469,-2.12 -0.2461,-0.6763 -0.7789,-1.2091 -1.4552,-1.4552 -0.2669,-0.0972 -0.5487,-0.1468 -0.8328,-0.1468 -0.284,0 -0.5658,0.0496 -0.8327,0.1468 -0.6763,0.2461 -1.2091,0.7789 -1.4553,1.4552 -0.1468,0.424 -0.1468,1.06 -0.1468,2.12 v 17.4218 c 0,1.0599 0,1.6959 0.1468,2.1199 0.2462,0.6763 0.779,1.2091 1.4553,1.4553 0.2669,0.0971 0.5487,0.1468 0.8327,0.1468 0.2841,0 0.5659,-0.0497 0.8328,-0.1468 0.6763,-0.2462 1.2091,-0.779 1.4552,-1.4553 0.1469,-0.424 0.1469,-1.06 0.1469,-2.1199 z" /></g></g></g><g
       id="g446"><g
         clip-path="url(#clipPath452)"
         id="g448"><g
           clip-path="url(#clipPath458)"
           id="g454"><path
             id="path460"
             style="fill:#9e9cbe;fill-opacity:1;fill-rule:nonzero;stroke:none"
             d="m 735.0387,461.5345 5.859,7.2169 c 0.6222,0.7665 0.9956,1.2264 1.3507,1.4468 0.575,0.3446 1.273,0.4171 1.9066,0.1981 0.25,-0.0865 0.483,-0.216 0.6884,-0.3827 0.2054,-0.1668 0.38,-0.3682 0.516,-0.5951 0.3445,-0.575 0.417,-1.273 0.198,-1.9066 -0.1428,-0.3928 -0.5161,-0.8527 -1.1384,-1.6192 l -5.8589,-7.2169 c -0.6223,-0.7665 -0.9956,-1.2264 -1.3507,-1.4468 -0.575,-0.3446 -1.2731,-0.4171 -1.9066,-0.198 -0.25,0.0864 -0.483,0.2159 -0.6884,0.3827 -0.2054,0.1667 -0.38,0.3681 -0.516,0.595 -0.3445,0.575 -0.417,1.2731 -0.198,1.9066 0.1427,0.3928 0.5161,0.8527 1.1383,1.6192 z" /></g></g></g><g
       id="g462"><g
         clip-path="url(#clipPath468)"
         id="g464"><path
           id="path470"
           style="fill:#3b2972;fill-opacity:1;fill-rule:nonzero;stroke:none"
           d="M 92.23953,594.1736 H 364.0815 c 9.2608,0 14.8172,0 18.5216,-1.5465 5.3401,-1.9437 9.5467,-6.1503 11.4903,-11.4904 1.5465,-3.7043 1.5465,-9.2608 1.5465,-18.5216 V 375.7305 c 0,-9.2608 0,-14.8173 -1.5465,-18.5216 -1.9436,-5.3401 -6.1502,-9.5467 -11.4903,-11.4903 -3.7044,-1.5465 -9.2608,-1.5465 -18.5216,-1.5465 H 92.23953 c -9.2608,0 -14.81728,0 -18.5216,1.5465 -5.3401,1.9436 -9.5467,6.1502 -11.49033,11.4903 -1.54651,3.7043 -1.54651,9.2608 -1.54651,18.5216 v 186.8846 c 0,9.2608 0,14.8173 1.54651,18.5216 1.94363,5.3401 6.15023,9.5467 11.49033,11.4904 3.70432,1.5465 9.2608,1.5465 18.5216,1.5465 z" /></g></g><g
       id="g472"><g
         clip-path="url(#clipPath478)"
         id="g474"><path
           id="path480"
           style="fill:#673da9;fill-opacity:1;fill-rule:nonzero;stroke:none"
           d="m 91.4244,585.879 h 273.4722 c 5.8363,0 9.3381,0 11.6727,-0.9747 3.3654,-1.2249 6.0165,-3.876 7.2414,-7.2414 0.9746,-2.3345 0.9746,-5.8363 0.9746,-11.6727 V 406.7084 c 0,-5.8363 0,-9.3382 -0.9746,-11.6727 -1.2249,-3.3654 -3.876,-6.0165 -7.2414,-7.2414 -2.3346,-0.9747 -5.8364,-0.9747 -11.6727,-0.9747 H 91.4244 c -5.83634,0 -9.33815,0 -11.67268,0.9747 -3.36544,1.2249 -6.01652,3.876 -7.24144,7.2414 -0.97464,2.3345 -0.97464,5.8364 -0.97464,11.6727 v 159.2818 c 0,5.8364 0,9.3382 0.97464,11.6727 1.22492,3.3654 3.876,6.0165 7.24144,7.2414 2.33453,0.9747 5.83634,0.9747 11.67268,0.9747 z" /></g></g><g
       id="g482"><g
         clip-path="url(#clipPath488)"
         id="g484"><path
           id="path490"
           style="fill:#3b2871;fill-opacity:1;fill-rule:nonzero;stroke:none"
           d="M 68.81391,559.5023 H 387.5071 V 432.1846 H 68.81391 Z" /></g></g><g
       id="g492"><g
         clip-path="url(#clipPath498)"
         id="g494"><path
           id="path500"
           style="fill:#ffffff;fill-opacity:1;fill-rule:nonzero;stroke:none"
           d="M 86.62056,453.662 H 369.8505 c 4.7056,0 7.5289,0 9.4111,-0.7858 2.7134,-0.9876 4.8508,-3.125 5.8384,-5.8384 0.7858,-1.8822 0.7858,-4.7055 0.7858,-9.411 V 369.871 c 0,-4.7056 0,-7.5289 -0.7858,-9.4111 -0.9876,-2.7134 -3.125,-4.8508 -5.8384,-5.8384 -1.8822,-0.7858 -4.7055,-0.7858 -9.4111,-0.7858 H 86.62056 c -4.70554,0 -7.52886,0 -9.41107,0.7858 -2.71338,0.9876 -4.85081,3.125 -5.83839,5.8384 -0.7858,1.8822 -0.7858,4.7055 -0.7858,9.4111 v 67.7558 c 0,4.7055 0,7.5288 0.7858,9.411 0.98758,2.7134 3.12501,4.8508 5.83839,5.8384 1.88221,0.7858 4.70553,0.7858 9.41107,0.7858 z" /></g></g><g
       id="g502"><g
         clip-path="url(#clipPath508)"
         id="g504"><path
           id="path510"
           style="fill:#ffffff;fill-opacity:1;fill-rule:nonzero;stroke:none"
           d="M 71.19983,552.7012 H 386.0505 V 429.47 H 71.19983 Z" /></g></g><g
       id="g512"><g
         clip-path="url(#clipPath518)"
         id="g514"><path
           id="path520"
           style="fill:#e0ceff;fill-opacity:1;fill-rule:nonzero;stroke:none"
           d="m 87.45194,469.1728 h 42.89786 c 4.4978,0 7.1964,0 8.9955,-0.7511 2.5936,-0.9439 4.6366,-2.987 5.5806,-5.5806 0.7511,-1.7991 0.7511,-4.4977 0.7511,-8.9955 v -33.4228 c 0,-4.4977 0,-7.1964 -0.7511,-8.9955 -0.944,-2.5935 -2.987,-4.6366 -5.5806,-5.5806 -1.7991,-0.7511 -4.4977,-0.7511 -8.9955,-0.7511 H 87.45194 c -4.49776,0 -7.19642,0 -8.99552,0.7511 -2.59357,0.944 -4.63662,2.9871 -5.5806,5.5806 -0.75111,1.7991 -0.75111,4.4978 -0.75111,8.9955 v 33.4228 c 0,4.4978 0,7.1964 0.75111,8.9955 0.94398,2.5936 2.98703,4.6367 5.5806,5.5806 1.7991,0.7511 4.49776,0.7511 8.99552,0.7511 z" /></g></g><g
       id="g522"><g
         clip-path="url(#clipPath528)"
         id="g524"><g
           clip-path="url(#clipPath534)"
           id="g530"><path
             id="path536"
             style="fill:#463278;fill-opacity:1;fill-rule:nonzero;stroke:none"
             d="m 83.04468,423.9453 15.97497,17.1082 c 1.09525,1.1729 1.75235,1.8766 2.35285,2.194 0.9712,0.4941 2.1112,0.5331 3.1139,0.1067 0.3957,-0.1683 0.7589,-0.4045 1.0732,-0.698 0.3142,-0.2934 0.5747,-0.6396 0.7697,-1.0229 0.494,-0.9711 0.5331,-2.1111 0.1067,-3.1138 -0.2756,-0.6209 -0.9328,-1.3246 -2.028,-2.4975 L 88.43306,418.9139 c -1.09521,-1.1729 -1.75233,-1.8767 -2.35289,-2.1941 -0.97117,-0.494 -2.11114,-0.5331 -3.11383,-0.1067 -0.3957,0.1683 -0.7589,0.4045 -1.07319,0.698 -0.31428,0.2935 -0.57479,0.6397 -0.76975,1.0229 -0.49401,0.9712 -0.53306,2.1111 -0.10665,3.1138 0.2756,0.6209 0.93273,1.3246 2.02793,2.4975 z" /></g></g></g><g
       id="g538"><g
         clip-path="url(#clipPath544)"
         id="g540"><g
           clip-path="url(#clipPath550)"
           id="g546"><path
             id="path552"
             style="fill:#473278;fill-opacity:1;fill-rule:nonzero;stroke:none"
             d="m 107.4865,441.5852 7.34,-6.8681 c 1.1395,-1.0663 1.8232,-1.706 2.1313,-2.2904 0.4795,-0.9449 0.5163,-2.0536 0.1006,-3.0283 -0.1641,-0.3846 -0.3941,-0.7376 -0.6799,-1.0429 -0.2857,-0.3054 -0.6226,-0.5584 -0.9955,-0.7476 -0.945,-0.4794 -2.0536,-0.5162 -3.0283,-0.1005 -0.6035,0.2686 -1.2872,0.9084 -2.4267,1.9747 l -7.34,6.8681 c -1.1395,1.0662 -1.8232,1.706 -2.1313,2.2903 -0.47947,0.945 -0.51629,2.0536 -0.1006,3.0283 0.1641,0.3847 0.3941,0.7376 0.6798,1.043 0.2858,0.3053 0.6227,0.5583 0.9956,0.7475 0.945,0.4795 2.0536,0.5163 3.0283,0.1006 0.6035,-0.2687 1.2872,-0.9084 2.4267,-1.9747 z" /></g></g></g><g
       id="g554"><g
         clip-path="url(#clipPath560)"
         id="g556"><g
           clip-path="url(#clipPath566)"
           id="g562"><path
             id="path568"
             style="fill:#463278;fill-opacity:1;fill-rule:nonzero;stroke:none"
             d="m 113.444,433.4925 16.4586,17.626 c 1.0263,1.0992 1.6421,1.7587 2.2049,2.0561 0.9101,0.463 1.9784,0.4996 2.9181,0.1 0.3708,-0.1577 0.7112,-0.3791 1.0057,-0.6541 0.2945,-0.275 0.5386,-0.5994 0.7213,-0.9586 0.463,-0.9101 0.4996,-1.9784 0.1,-2.918 -0.2583,-0.5819 -0.8741,-1.2414 -1.9005,-2.3405 l -16.4585,-17.626 c -1.0264,-1.0992 -1.6422,-1.7587 -2.205,-2.0562 -0.9101,-0.4629 -1.9784,-0.4995 -2.918,-0.0999 -0.3708,0.1577 -0.7112,0.379 -1.0057,0.6541 -0.2946,0.275 -0.5387,0.5994 -0.7214,0.9586 -0.4629,0.9101 -0.4995,1.9784 -0.0999,2.918 0.2582,0.5818 0.8741,1.2413 1.9004,2.3405 z" /></g></g></g><g
       id="g570"><g
         clip-path="url(#clipPath576)"
         id="g572"><path
           id="path578"
           style="fill:#3b2972;fill-opacity:1;fill-rule:nonzero;stroke:none"
           d="m 170.9291,547.2966 h 179.8363 c 4.0516,0 6.4825,0 8.1032,-0.6766 2.3363,-0.8504 4.1767,-2.6907 5.027,-5.027 0.6766,-1.6207 0.6766,-4.0516 0.6766,-8.1033 v -12.111 c 0,-4.0516 0,-6.4826 -0.6766,-8.1032 -0.8503,-2.3363 -2.6907,-4.1767 -5.027,-5.027 -1.6207,-0.6766 -4.0516,-0.6766 -8.1032,-0.6766 H 170.9291 c -4.0516,0 -6.4826,0 -8.1032,0.6766 -2.3363,0.8503 -4.1767,2.6907 -5.0271,5.027 -0.6765,1.6206 -0.6765,4.0516 -0.6765,8.1032 v 12.111 c 0,4.0517 0,6.4826 0.6765,8.1033 0.8504,2.3363 2.6908,4.1766 5.0271,5.027 1.6206,0.6766 4.0516,0.6766 8.1032,0.6766 z" /></g></g><g
       id="g580"><g
         clip-path="url(#clipPath586)"
         id="g582"><path
           id="path588"
           style="fill:#ffffff;fill-opacity:1;fill-rule:nonzero;stroke:none"
           d="m 174.0613,539.5091 h 27.7143 c 1.7016,0 2.7226,0 3.4033,-0.2842 0.9813,-0.3571 1.7542,-1.1301 2.1114,-2.1113 0.2842,-0.6807 0.2842,-1.7017 0.2842,-3.4034 v -12.5519 c 0,-1.7017 0,-2.7227 -0.2842,-3.4034 -0.3572,-0.9813 -1.1301,-1.7542 -2.1114,-2.1114 -0.6807,-0.2841 -1.7017,-0.2841 -3.4033,-0.2841 h -27.7143 c -1.7017,0 -2.7227,0 -3.4034,0.2841 -0.9812,0.3572 -1.7542,1.1301 -2.1114,2.1114 -0.2841,0.6807 -0.2841,1.7017 -0.2841,3.4034 v 12.5519 c 0,1.7017 0,2.7227 0.2841,3.4034 0.3572,0.9812 1.1302,1.7542 2.1114,2.1113 0.6807,0.2842 1.7017,0.2842 3.4034,0.2842 z" /></g></g><g
       id="g590"><g
         clip-path="url(#clipPath596)"
         id="g592"><path
           id="path598"
           style="fill:#ffffff;fill-opacity:1;fill-rule:nonzero;stroke:none"
           d="m 222.3109,539.5091 h 27.7142 c 1.7017,0 2.7227,0 3.4034,-0.2842 0.9812,-0.3571 1.7542,-1.1301 2.1114,-2.1113 0.2841,-0.6807 0.2841,-1.7017 0.2841,-3.4034 v -12.5519 c 0,-1.7017 0,-2.7227 -0.2841,-3.4034 -0.3572,-0.9813 -1.1302,-1.7542 -2.1114,-2.1114 -0.6807,-0.2841 -1.7017,-0.2841 -3.4034,-0.2841 h -27.7142 c -1.7017,0 -2.7227,0 -3.4034,0.2841 -0.9813,0.3572 -1.7542,1.1301 -2.1114,2.1114 -0.2842,0.6807 -0.2842,1.7017 -0.2842,3.4034 v 12.5519 c 0,1.7017 0,2.7227 0.2842,3.4034 0.3572,0.9812 1.1301,1.7542 2.1114,2.1113 0.6807,0.2842 1.7017,0.2842 3.4034,0.2842 z" /></g></g><g
       id="g600"><g
         clip-path="url(#clipPath606)"
         id="g602"><path
           id="path608"
           style="fill:#ffffff;fill-opacity:1;fill-rule:nonzero;stroke:none"
           d="m 270.6315,539.5091 h 27.7142 c 1.7017,0 2.7227,0 3.4034,-0.2842 0.9813,-0.3571 1.7542,-1.1301 2.1114,-2.1113 0.2842,-0.6807 0.2842,-1.7017 0.2842,-3.4034 v -12.5519 c 0,-1.7017 0,-2.7227 -0.2842,-3.4034 -0.3572,-0.9813 -1.1301,-1.7542 -2.1114,-2.1114 -0.6807,-0.2841 -1.7017,-0.2841 -3.4034,-0.2841 h -27.7142 c -1.7017,0 -2.7227,0 -3.4034,0.2841 -0.9812,0.3572 -1.7542,1.1301 -2.1114,2.1114 -0.2841,0.6807 -0.2841,1.7017 -0.2841,3.4034 v 12.5519 c 0,1.7017 0,2.7227 0.2841,3.4034 0.3572,0.9812 1.1302,1.7542 2.1114,2.1113 0.6807,0.2842 1.7017,0.2842 3.4034,0.2842 z" /></g></g><g
       id="g610"><g
         clip-path="url(#clipPath616)"
         id="g612"><path
           id="path618"
           style="fill:#ffffff;fill-opacity:1;fill-rule:nonzero;stroke:none"
           d="m 318.9521,539.5091 h 27.7143 c 1.7017,0 2.7227,0 3.4034,-0.2842 0.9812,-0.3571 1.7542,-1.1301 2.1113,-2.1113 0.2842,-0.6807 0.2842,-1.7017 0.2842,-3.4034 v -12.5519 c 0,-1.7017 0,-2.7227 -0.2842,-3.4034 -0.3571,-0.9813 -1.1301,-1.7542 -2.1113,-2.1114 -0.6807,-0.2841 -1.7017,-0.2841 -3.4034,-0.2841 h -27.7143 c -1.7017,0 -2.7227,0 -3.4033,0.2841 -0.9813,0.3572 -1.7543,1.1301 -2.1114,2.1114 -0.2842,0.6807 -0.2842,1.7017 -0.2842,3.4034 v 12.5519 c 0,1.7017 0,2.7227 0.2842,3.4034 0.3571,0.9812 1.1301,1.7542 2.1114,2.1113 0.6806,0.2842 1.7016,0.2842 3.4033,0.2842 z" /></g></g><g
       id="g620"><g
         clip-path="url(#clipPath626)"
         id="g622"><g
           transform="translate(183.1006,523.8346)"
           id="g628"><text
             id="text632"
             style="font-variant:normal;font-size:14px;font-family:HelveticaRoundedLTStd;-inkscape-font-specification:HelveticaRoundedLTStd-Bd;writing-mode:lr-tb;fill:#2c3544;fill-opacity:1;fill-rule:nonzero;stroke:none"
             transform="scale(1,-1)"><tspan
               id="tspan630"
               y="0"
               x="0">P</tspan></text>
</g></g></g><g
       id="g634"><g
         clip-path="url(#clipPath640)"
         id="g636"><g
           transform="translate(233.9566,523.8346)"
           id="g642"><text
             id="text646"
             style="font-variant:normal;font-size:14px;font-family:HelveticaRoundedLTStd;-inkscape-font-specification:HelveticaRoundedLTStd-Bd;writing-mode:lr-tb;fill:#2c3544;fill-opacity:1;fill-rule:nonzero;stroke:none"
             transform="scale(1,-1)"><tspan
               id="tspan644"
               y="0"
               x="0">I</tspan></text>
</g></g></g><g
       id="g648"><g
         clip-path="url(#clipPath654)"
         id="g650"><g
           transform="translate(279.4369,522.8346)"
           id="g656"><text
             id="text660"
             style="font-variant:normal;font-size:14px;font-family:HelveticaRoundedLTStd;-inkscape-font-specification:HelveticaRoundedLTStd-Bd;writing-mode:lr-tb;fill:#2c3544;fill-opacity:1;fill-rule:nonzero;stroke:none"
             transform="scale(1,-1)"><tspan
               id="tspan658"
               y="0"
               x="0">C</tspan></text>
</g></g></g><g
       id="g662"><g
         clip-path="url(#clipPath668)"
         id="g664"><g
           transform="translate(328.0017,522.7645)"
           id="g670"><text
             id="text674"
             style="font-variant:normal;font-size:14px;font-family:HelveticaRoundedLTStd;-inkscape-font-specification:HelveticaRoundedLTStd-Bd;writing-mode:lr-tb;fill:#2c3544;fill-opacity:1;fill-rule:nonzero;stroke:none"
             transform="scale(1,-1)"><tspan
               id="tspan672"
               y="0"
               x="0 11.4226">O </tspan></text>
</g></g></g><g
       id="g676"><g
         clip-path="url(#clipPath682)"
         id="g678"><path
           id="path684"
           style="fill:#e0cdff;fill-opacity:0.5;fill-rule:nonzero;stroke:none"
           d="m 172.3526,500.5291 h 176.9892 c 5.4981,0 8.7969,0 10.9961,-0.9181 3.1704,-1.154 5.6678,-3.6514 6.8217,-6.8217 0.9182,-2.1993 0.9182,-5.4981 0.9182,-10.9961 v -71.7821 c 0,-5.498 0,-8.7968 -0.9182,-10.9961 -1.1539,-3.1703 -3.6513,-5.6678 -6.8217,-6.8217 -2.1992,-0.9181 -5.498,-0.9181 -10.9961,-0.9181 H 172.3526 c -5.498,0 -8.7968,0 -10.9961,0.9181 -3.1703,1.1539 -5.6677,3.6514 -6.8217,6.8217 -0.9181,2.1993 -0.9181,5.4981 -0.9181,10.9961 v 71.7821 c 0,5.498 0,8.7968 0.9181,10.9961 1.154,3.1703 3.6514,5.6677 6.8217,6.8217 2.1993,0.9181 5.4981,0.9181 10.9961,0.9181 z" /></g></g><g
       id="g686"><g
         clip-path="url(#clipPath692)"
         id="g688"><path
           id="path694"
           style="fill:#99b4e5;fill-opacity:1;fill-rule:nonzero;stroke:none"
           d="m 238.0416,428.2789 h 45.6113 c 2.1056,0 3.3689,0 4.2111,-0.3516 1.2141,-0.4419 2.1706,-1.3984 2.6125,-2.6125 0.3516,-0.8422 0.3516,-2.1056 0.3516,-4.2111 v -12.2144 c 0,-2.1056 0,-3.3689 -0.3516,-4.2112 -0.4419,-1.2141 -1.3984,-2.1705 -2.6125,-2.6124 -0.8422,-0.3516 -2.1055,-0.3516 -4.2111,-0.3516 h -45.6113 c -2.1056,0 -3.3689,0 -4.2111,0.3516 -1.2142,0.4419 -2.1706,1.3983 -2.6125,2.6124 -0.3516,0.8423 -0.3516,2.1056 -0.3516,4.2112 v 12.2144 c 0,2.1055 0,3.3689 0.3516,4.2111 0.4419,1.2141 1.3983,2.1706 2.6125,2.6125 0.8422,0.3516 2.1055,0.3516 4.2111,0.3516 z" /></g></g><g
       id="g696"><g
         clip-path="url(#clipPath702)"
         id="g698"><path
           id="path704"
           style="fill:#fa5575;fill-opacity:1;fill-rule:nonzero;stroke:none"
           d="m 169.5193,428.2789 h 44.0046 c 2.3413,0 3.7461,0 4.6826,-0.391 1.35,-0.4914 2.4135,-1.5549 2.9049,-2.905 0.391,-0.9365 0.391,-2.3413 0.391,-4.6826 v -10.6077 c 0,-2.3413 0,-3.7461 -0.391,-4.6826 -0.4914,-1.3501 -1.5549,-2.4136 -2.9049,-2.905 -0.9365,-0.3909 -2.3413,-0.3909 -4.6826,-0.3909 h -44.0046 c -2.3413,0 -3.7461,0 -4.6826,0.3909 -1.3501,0.4914 -2.4136,1.5549 -2.905,2.905 -0.391,0.9365 -0.391,2.3413 -0.391,4.6826 v 10.6077 c 0,2.3413 0,3.7461 0.391,4.6826 0.4914,1.3501 1.5549,2.4136 2.905,2.905 0.9365,0.391 2.3413,0.391 4.6826,0.391 z" /></g></g><g
       id="g706"><g
         clip-path="url(#clipPath712)"
         id="g708"><path
           id="path714"
           style="fill:#16c4a8;fill-opacity:1;fill-rule:nonzero;stroke:none"
           d="m 307.8118,428.2789 h 44.7222 c 2.236,0 3.5776,0 4.472,-0.3734 1.2894,-0.4693 2.305,-1.485 2.7743,-2.7743 0.3734,-0.8944 0.3734,-2.2361 0.3734,-4.4721 v -11.3253 c 0,-2.236 0,-3.5776 -0.3734,-4.472 -0.4693,-1.2894 -1.4849,-2.305 -2.7743,-2.7743 -0.8944,-0.3734 -2.236,-0.3734 -4.472,-0.3734 h -44.7222 c -2.236,0 -3.5776,0 -4.472,0.3734 -1.2894,0.4693 -2.3051,1.4849 -2.7744,2.7743 -0.3734,0.8944 -0.3734,2.236 -0.3734,4.472 v 11.3253 c 0,2.236 0,3.5777 0.3734,4.4721 0.4693,1.2893 1.485,2.305 2.7744,2.7743 0.8944,0.3734 2.236,0.3734 4.472,0.3734 z" /></g></g><g
       id="g716"><g
         clip-path="url(#clipPath722)"
         id="g718"><path
           id="path724"
           style="fill:#3b2972;fill-opacity:1;fill-rule:nonzero;stroke:none"
           d="m 174.6603,490.2622 h 172.3738 c 2.8654,0 4.5846,0 5.7307,-0.3969 1.8283,-0.6654 3.2684,-2.1056 3.9338,-3.9338 0.2626,-0.7215 0.397,-1.4833 0.397,-2.2511 0,-0.7678 -0.1344,-1.5297 -0.397,-2.2511 -0.6654,-1.8283 -2.1055,-3.2684 -3.9338,-3.9338 -1.1461,-0.397 -2.8653,-0.397 -5.7307,-0.397 H 174.6603 c -2.8654,0 -4.5846,0 -5.7307,0.397 -1.8282,0.6654 -3.2684,2.1055 -3.9338,3.9338 -0.2626,0.7214 -0.3969,1.4833 -0.3969,2.2511 0,0.7678 0.1343,1.5296 0.3969,2.2511 0.6654,1.8282 2.1056,3.2684 3.9338,3.9338 1.1461,0.3969 2.8653,0.3969 5.7307,0.3969 z" /></g></g><g
       id="g726"><g
         clip-path="url(#clipPath732)"
         id="g728"><path
           id="path734"
           style="fill:#b496ed;fill-opacity:1;fill-rule:nonzero;stroke:none"
           d="m 176.2235,471.4841 h 142.3248 c 2.8653,0 4.5846,0 5.7307,-0.3969 1.8282,-0.6655 3.2684,-2.1056 3.9338,-3.9338 0.2626,-0.7215 0.3969,-1.4834 0.3969,-2.2512 0,-0.7677 -0.1343,-1.5296 -0.3969,-2.2511 -0.6654,-1.8282 -2.1056,-3.2684 -3.9338,-3.9338 -1.1461,-0.3969 -2.8654,-0.3969 -5.7307,-0.3969 H 176.2235 c -2.8653,0 -4.5845,0 -5.7307,0.3969 -1.8282,0.6654 -3.2684,2.1056 -3.9338,3.9338 -0.2626,0.7215 -0.3969,1.4834 -0.3969,2.2511 0,0.7678 0.1343,1.5297 0.3969,2.2512 0.6654,1.8282 2.1056,3.2683 3.9338,3.9338 1.1462,0.3969 2.8654,0.3969 5.7307,0.3969 z" /></g></g><g
       id="g736"><g
         clip-path="url(#clipPath742)"
         id="g738"><path
           id="path744"
           style="fill:#b395ed;fill-opacity:1;fill-rule:nonzero;stroke:none"
           d="m 176.2235,452.7059 h 159.9988 c 2.8654,0 4.5846,0 5.7307,-0.3969 1.8282,-0.6654 3.2684,-2.1056 3.9338,-3.9338 0.2626,-0.7215 0.3969,-1.4833 0.3969,-2.2511 0,-0.7678 -0.1343,-1.5296 -0.3969,-2.2511 -0.6654,-1.8282 -2.1056,-3.2684 -3.9338,-3.9338 -1.1461,-0.397 -2.8653,-0.397 -5.7307,-0.397 H 176.2235 c -2.8653,0 -4.5845,0 -5.7307,0.397 -1.8282,0.6654 -3.2684,2.1056 -3.9338,3.9338 -0.2626,0.7215 -0.3969,1.4833 -0.3969,2.2511 0,0.7678 0.1343,1.5296 0.3969,2.2511 0.6654,1.8282 2.1056,3.2684 3.9338,3.9338 1.1462,0.3969 2.8654,0.3969 5.7307,0.3969 z" /></g></g><g
       id="g746"><g
         clip-path="url(#clipPath752)"
         id="g748"><g
           transform="translate(257.4048,409.5716)"
           id="g754"><text
             id="text758"
             style="font-variant:normal;font-size:12px;font-family:HelveticaRoundedLTStd;-inkscape-font-specification:HelveticaRoundedLTStd-Bd;writing-mode:lr-tb;fill:#ffffff;fill-opacity:1;fill-rule:nonzero;stroke:none"
             transform="scale(1,-1)"><tspan
               id="tspan756"
               y="0"
               x="0">?</tspan></text>
</g></g></g><g
       id="g760"><g
         clip-path="url(#clipPath766)"
         id="g762"><g
           clip-path="url(#clipPath772)"
           id="g768"><path
             id="path774"
             style="fill:#ffffff;fill-opacity:1;fill-rule:nonzero;stroke:none"
             d="m 324.0049,415.2588 2.6603,-3.4049 c 0.3719,-0.476 0.595,-0.7616 0.6778,-1.0036 0.1268,-0.39 0.0744,-0.8162 -0.1429,-1.164 -0.0858,-0.1373 -0.1949,-0.2585 -0.3224,-0.3581 -0.1276,-0.0997 -0.2716,-0.1763 -0.4255,-0.2263 -0.3901,-0.1267 -0.8163,-0.0744 -1.1641,0.143 -0.2147,0.1388 -0.4378,0.4244 -0.8097,0.9005 l -2.6603,3.4049 c -0.3719,0.476 -0.595,0.7616 -0.6778,1.0035 -0.1268,0.3901 -0.0744,0.8163 0.1429,1.1641 0.0858,0.1373 0.1949,0.2585 0.3225,0.3581 0.1275,0.0997 0.2715,0.1762 0.4254,0.2263 0.3901,0.1267 0.8163,0.0744 1.1641,-0.143 0.2147,-0.1389 0.4378,-0.4245 0.8097,-0.9005 z" /></g></g></g><g
       id="g776"><g
         clip-path="url(#clipPath782)"
         id="g778"><g
           clip-path="url(#clipPath788)"
           id="g784"><path
             id="path790"
             style="fill:#ffffff;fill-opacity:1;fill-rule:nonzero;stroke:none"
             d="m 338.3515,419.1396 -10.7544,-9.3486 c -0.4221,-0.3669 -0.6753,-0.5871 -0.895,-0.6754 -0.3545,-0.1361 -0.7511,-0.1083 -1.0832,0.0758 -0.131,0.0726 -0.2484,0.1676 -0.3467,0.2807 -0.0983,0.1131 -0.1761,0.2426 -0.2298,0.3825 -0.1361,0.3545 -0.1083,0.751 0.0757,1.0832 0.1181,0.2052 0.3713,0.4253 0.7934,0.7922 l 10.7544,9.3487 c 0.422,0.3669 0.6753,0.587 0.895,0.6753 0.3545,0.1361 0.751,0.1084 1.0831,-0.0757 0.1311,-0.0727 0.2485,-0.1677 0.3468,-0.2808 0.0983,-0.1131 0.176,-0.2425 0.2298,-0.3824 0.136,-0.3545 0.1083,-0.7511 -0.0758,-1.0832 -0.118,-0.2052 -0.3712,-0.4254 -0.7933,-0.7923 z" /></g></g></g><g
       id="g792"><g
         clip-path="url(#clipPath798)"
         id="g794"><g
           clip-path="url(#clipPath804)"
           id="g800"><path
             id="path806"
             style="fill:#ffffff;fill-opacity:1;fill-rule:nonzero;stroke:none"
             d="m 198.6238,418.955 -11.8387,-10.2913 c -0.4657,-0.4048 -0.7451,-0.6477 -0.9875,-0.7451 -0.3912,-0.1502 -0.8287,-0.1196 -1.1952,0.0836 -0.1446,0.0801 -0.2741,0.185 -0.3825,0.3098 -0.1085,0.1247 -0.1943,0.2675 -0.2536,0.4219 -0.1501,0.3912 -0.1195,0.8287 0.0836,1.1952 0.1302,0.2264 0.4096,0.4693 0.8753,0.8741 l 11.8387,10.2913 c 0.4657,0.4048 0.7452,0.6477 0.9875,0.7451 0.3912,0.1502 0.8287,0.1196 1.1952,-0.0836 0.1446,-0.0801 0.2741,-0.185 0.3825,-0.3098 0.1085,-0.1247 0.1943,-0.2675 0.2536,-0.4219 0.1501,-0.3912 0.1195,-0.8287 -0.0836,-1.1952 -0.1302,-0.2264 -0.4096,-0.4693 -0.8753,-0.8741 z" /></g></g></g><g
       id="g808"><g
         clip-path="url(#clipPath814)"
         id="g810"><g
           clip-path="url(#clipPath820)"
           id="g816"><path
             id="path822"
             style="fill:#ffffff;fill-opacity:1;fill-rule:nonzero;stroke:none"
             d="m 196.5884,408.7705 -11.9374,10.377 c -0.4517,0.3926 -0.7227,0.6281 -0.8489,0.8478 -0.197,0.3554 -0.2267,0.7797 -0.0811,1.1591 0.0575,0.1497 0.1407,0.2882 0.2459,0.4092 0.1052,0.121 0.2308,0.2227 0.371,0.3004 0.3554,0.197 0.7798,0.2267 1.1591,0.0811 0.2351,-0.0945 0.5061,-0.3301 0.9577,-0.7227 l 11.9374,-10.377 c 0.4516,-0.3926 0.7226,-0.6282 0.8489,-0.8478 0.197,-0.3554 0.2267,-0.7797 0.0811,-1.1591 -0.0575,-0.1497 -0.1407,-0.2882 -0.2459,-0.4092 -0.1052,-0.121 -0.2308,-0.2227 -0.371,-0.3005 -0.3554,-0.197 -0.7798,-0.2266 -1.1591,-0.081 -0.2351,0.0945 -0.5061,0.33 -0.9577,0.7227 z" /></g></g></g><g
       id="g824"><g
         clip-path="url(#clipPath830)"
         id="g826"><path
           id="path832"
           style="fill:#3b2972;fill-opacity:1;fill-rule:nonzero;stroke:none"
           d="m 175.6112,385.8562 h 136.0091 c 2.7785,0 4.4457,0 5.5571,-0.385 1.7728,-0.6452 3.1693,-2.0417 3.8146,-3.8146 0.2546,-0.6996 0.3849,-1.4384 0.3849,-2.1829 0,-0.7445 -0.1303,-1.4833 -0.3849,-2.1829 -0.6453,-1.7728 -2.0418,-3.1694 -3.8146,-3.8146 -1.1114,-0.3849 -2.7786,-0.3849 -5.5571,-0.3849 H 175.6112 c -2.7786,0 -4.4457,0 -5.5571,0.3849 -1.7729,0.6452 -3.1694,2.0418 -3.8146,3.8146 -0.2547,0.6996 -0.3849,1.4384 -0.3849,2.1829 0,0.7445 0.1302,1.4833 0.3849,2.1829 0.6452,1.7729 2.0417,3.1694 3.8146,3.8146 1.1114,0.385 2.7785,0.385 5.5571,0.385 z" /></g></g><g
       id="g834"><g
         clip-path="url(#clipPath840)"
         id="g836"><path
           id="path842"
           style="fill:#b496ed;fill-opacity:1;fill-rule:nonzero;stroke:none"
           d="m 175.6112,369.5831 h 114.8477 c 2.7785,0 4.4456,0 5.5571,-0.3849 1.7728,-0.6453 3.1693,-2.0418 3.8146,-3.8146 0.2546,-0.6996 0.3849,-1.4384 0.3849,-2.1829 0,-0.7446 -0.1303,-1.4833 -0.3849,-2.183 -0.6453,-1.7728 -2.0418,-3.1693 -3.8146,-3.8146 -1.1115,-0.3849 -2.7786,-0.3849 -5.5571,-0.3849 H 175.6112 c -2.7786,0 -4.4457,0 -5.5571,0.3849 -1.7729,0.6453 -3.1694,2.0418 -3.8146,3.8146 -0.2547,0.6997 -0.3849,1.4384 -0.3849,2.183 0,0.7445 0.1302,1.4833 0.3849,2.1829 0.6452,1.7728 2.0417,3.1693 3.8146,3.8146 1.1114,0.3849 2.7785,0.3849 5.5571,0.3849 z" /></g></g><g
       id="g844"><g
         clip-path="url(#clipPath850)"
         id="g846"><g
           clip-path="url(#clipPath856)"
           id="g852"><path
             id="path858"
             style="fill:#3c2973;fill-opacity:1;fill-rule:nonzero;stroke:none"
             d="m 92.64299,575.8618 c 2.28446,-2.043 2.48021,-5.5511 0.43721,-7.8355 -2.04299,-2.2845 -5.55109,-2.4802 -7.83555,-0.4373 -2.28446,2.043 -2.48021,5.5511 -0.43722,7.8356 2.043,2.2845 5.55109,2.4802 7.83556,0.4372 z" /></g></g></g><g
       id="g860"><g
         clip-path="url(#clipPath866)"
         id="g862"><g
           clip-path="url(#clipPath872)"
           id="g868"><path
             id="path874"
             style="fill:#3c2973;fill-opacity:1;fill-rule:nonzero;stroke:none"
             d="m 109.0606,575.8618 c 2.2845,-2.043 2.4802,-5.5511 0.4372,-7.8355 -2.043,-2.2845 -5.5511,-2.4802 -7.8355,-0.4373 -2.28451,2.043 -2.48025,5.5511 -0.4373,7.8356 2.043,2.2845 5.5511,2.4802 7.8356,0.4372 z" /></g></g></g><g
       id="g876"><g
         clip-path="url(#clipPath882)"
         id="g878"><g
           clip-path="url(#clipPath888)"
           id="g884"><path
             id="path890"
             style="fill:#3c2973;fill-opacity:1;fill-rule:nonzero;stroke:none"
             d="m 125.4782,575.8618 c 2.2845,-2.043 2.4802,-5.5511 0.4372,-7.8355 -2.043,-2.2845 -5.5511,-2.4802 -7.8355,-0.4373 -2.2845,2.043 -2.4802,5.5511 -0.4373,7.8356 2.043,2.2845 5.5511,2.4802 7.8356,0.4372 z" /></g></g></g></g></svg>